<svg xmlns="http://www.w3.org/2000/svg" viewBox="0 0 512 512">
  <rect width="512" height="512" rx="112" fill="#102420"/>
  <circle cx="256" cy="256" r="158" fill="#fffaf0"/>
  <path d="M146 274c28-62 72-96 132-96 48 0 86 22 114 66-24 66-70 100-136 100-47 0-84-23-110-70Z" fill="#0c755f"/>
  <path d="M185 260c22-30 51-46 87-46 32 0 58 14 78 42-18 32-47 49-88 49-32 0-58-15-77-45Z" fill="#f6efe3"/>
  <circle cx="248" cy="256" r="35" fill="#dfaa3d"/>
  <path d="M320 176c26-12 51-11 76 3-10 27-28 44-55 51-21-14-28-32-21-54Z" fill="#e9613f"/>
</svg>
